<svg id="car-svgrepo-com-1" xmlns="http://www.w3.org/2000/svg" xmlns:xlink="http://www.w3.org/1999/xlink" viewBox="0 0 512 512" shape-rendering="geometricPrecision" text-rendering="geometricPrecision"><style><![CDATA[#car-svgrepo-com-1-g1_to {animation: car-svgrepo-com-1-g1_to__to 1500ms linear 1 normal forwards}@keyframes car-svgrepo-com-1-g1_to__to { 0% {transform: translate(283.996094px,256px)} 33.333333% {transform: translate(283.996094px,256px)} 100% {transform: translate(816.417304px,232px)} }#car-svgrepo-com-1-vector_9 {animation: car-svgrepo-com-1-vector_9_c_o 1500ms linear 1 normal forwards}@keyframes car-svgrepo-com-1-vector_9_c_o { 0% {opacity: 0} 20% {opacity: 1} 100% {opacity: 1} }#car-svgrepo-com-1-tyre-1_tr {animation: car-svgrepo-com-1-tyre-1_tr__tr 1500ms linear 1 normal forwards}@keyframes car-svgrepo-com-1-tyre-1_tr__tr { 0% {transform: translate(136px,316px) rotate(0deg)} 100% {transform: translate(136px,316px) rotate(360deg)} }#car-svgrepo-com-1-vector_20_tr {animation: car-svgrepo-com-1-vector_20_tr__tr 1500ms linear 1 normal forwards}@keyframes car-svgrepo-com-1-vector_20_tr__tr { 0% {transform: translate(136px,316px) rotate(0deg)} 100% {transform: translate(136px,316px) rotate(1080deg)} }#car-svgrepo-com-1-group-7_tr {animation: car-svgrepo-com-1-group-7_tr__tr 1500ms linear 1 normal forwards}@keyframes car-svgrepo-com-1-group-7_tr__tr { 0% {transform: translate(376px,316px) rotate(0deg)} 100% {transform: translate(376px,316px) rotate(360deg)} }]]></style><g id="car-svgrepo-com-1-car-svgrepo-com-1"><path id="car-svgrepo-com-1-vector" d="M256,512C397.385000,512,512,397.385000,512,256C512,114.615000,397.385000,0,256,0C114.615000,0,0,114.615000,0,256C0,397.385000,114.615000,512,256,512Z" fill="rgb(45,68,82)" stroke="none" stroke-width="1"/><path id="car-svgrepo-com-1-vector_2" d="M11,332C43.376000,436.272000,140.608000,512,255.528000,512C370.448000,512,467.680000,436.272000,500.056000,332L11,332Z" fill="rgb(36,36,36)" stroke="none" stroke-width="1"/><g id="car-svgrepo-com-1-group"><path id="car-svgrepo-com-1-vector_3" d="M104,380L56,380L56,396L104,396L104,380Z" fill="rgb(245,245,245)" stroke="none" stroke-width="1"/><path id="car-svgrepo-com-1-vector_4" d="M172,380L124,380L124,396L172,396L172,380Z" fill="rgb(245,245,245)" stroke="none" stroke-width="1"/><path id="car-svgrepo-com-1-vector_5" d="M240,380L192,380L192,396L240,396L240,380Z" fill="rgb(245,245,245)" stroke="none" stroke-width="1"/><path id="car-svgrepo-com-1-vector_6" d="M308,380L260,380L260,396L308,396L308,380Z" fill="rgb(245,245,245)" stroke="none" stroke-width="1"/><path id="car-svgrepo-com-1-vector_7" d="M376,380L328,380L328,396L376,396L376,380Z" fill="rgb(245,245,245)" stroke="none" stroke-width="1"/><path id="car-svgrepo-com-1-vector_8" d="M444,380L396,380L396,396L444,396L444,380Z" fill="rgb(245,245,245)" stroke="none" stroke-width="1"/></g><g id="car-svgrepo-com-1-g1_to" transform="translate(283.996094,256)"><g id="car-svgrepo-com-1-g1" transform="translate(-283.996094,-256)"><path id="car-svgrepo-com-1-vector_9" d="M434.780000,236L453.724000,270.892000L510.004000,287.416000C511.260000,277.112000,511.992000,266.648000,511.992000,256C511.992000,232.048000,508.632000,208.892000,502.476000,186.900000L434.780000,236Z" opacity="0" fill="rgb(132,211,196)" stroke="none" stroke-width="1"/><path id="car-svgrepo-com-1-vector_10" d="M408.608000,228L351.028000,228L308.772000,168.100000C303.392000,160.412000,294.744000,156,285.040000,156L174.264000,156C164.576000,156,155.936000,160.412000,150.552000,168.088000L108.272000,228L60,228C57.788000,228,56,229.792000,56,232L56,308C56,310.208000,57.788000,312,60,312L88.204000,312C90.252000,287.400000,110.884000,268,136,268C161.116000,268,181.752000,287.400000,183.796000,312L328.204000,312C330.252000,287.400000,350.884000,268,376,268C401.116000,268,421.752000,287.400000,423.796000,312L452,312C454.212000,312,456,310.208000,456,308L456,297.140000C456,239.996000,430.236000,228,408.608000,228Z" fill="rgb(64,106,128)" stroke="none" stroke-width="1"/><g id="car-svgrepo-com-1-g2"><g id="car-svgrepo-com-1-g3"><g id="car-svgrepo-com-1-group_2"><path id="car-svgrepo-com-1-vector_11" d="M120,268C94.884000,268,74.248000,287.400000,72.204000,312L88.204000,312C90.024000,290.080000,106.628000,272.320000,128,268.712000C125.400000,268.264000,122.736000,268,120,268Z" fill="rgb(57,95,115)" stroke="none" stroke-width="1"/><path id="car-svgrepo-com-1-vector_12" d="M300.772000,168.100000L343.032000,228L351.032000,228L308.780000,168.100000C303.392000,160.412000,294.744000,156,285.044000,156L277.044000,156C286.744000,156,295.392000,160.412000,300.772000,168.100000Z" fill="rgb(57,95,115)" stroke="none" stroke-width="1"/><path id="car-svgrepo-com-1-vector_13" d="M360,268C334.884000,268,314.248000,287.400000,312.204000,312L328.204000,312C330.024000,290.080000,346.628000,272.320000,368,268.712000C365.400000,268.264000,362.736000,268,360,268Z" fill="rgb(57,95,115)" stroke="none" stroke-width="1"/><path id="car-svgrepo-com-1-vector_14" d="M408.608000,228L392.608000,228C414.228000,228,440,239.996000,440,297.140000L440,308C440,310.208000,438.212000,312,436,312L452,312C454.212000,312,456,310.208000,456,308L456,297.140000C456,239.996000,430.236000,228,408.608000,228Z" fill="rgb(57,95,115)" stroke="none" stroke-width="1"/></g><g id="car-svgrepo-com-1-tyre-1_tr" transform="translate(136,316) rotate(0)"><g id="car-svgrepo-com-1-tyre-1" transform="translate(-136,-316)"><path id="car-svgrepo-com-1-vector_16" d="M136,356C113.944000,356,96,338.056000,96,316C96,293.944000,113.944000,276,136,276C158.056000,276,176,293.944000,176,316C176,338.056000,158.056000,356,136,356Z" fill="rgb(13,13,13)" stroke="none" stroke-width="1"/><path id="car-svgrepo-com-1-vector_17" d="M136,352C116.152000,352,100,335.848000,100,316C100,296.152000,116.152000,280,136,280C155.848000,280,172,296.148000,172,316C172,335.848000,155.848000,352,136,352Z" fill="rgb(36,36,36)" stroke="none" stroke-width="1"/><path id="car-svgrepo-com-1-vector_18" d="M136,344C120.564000,344,108,331.436000,108,316C108,300.564000,120.564000,288,136,288C151.436000,288,164,300.564000,164,316C164,331.436000,151.436000,344,136,344Z" fill="rgb(179,179,179)" stroke="none" stroke-width="1"/><path id="car-svgrepo-com-1-vector_19" d="M136,340C122.764000,340,112,329.236000,112,316C112,302.764000,122.764000,292,136,292C149.236000,292,160,302.764000,160,316C160,329.236000,149.236000,340,136,340Z" fill="rgb(204,204,204)" stroke="none" stroke-width="1"/><g id="car-svgrepo-com-1-vector_20_tr" transform="translate(136,316) rotate(0)"><path id="car-svgrepo-com-1-vector_20" d="M136,324C131.584000,324,128,320.416000,128,316C128,311.584000,131.584000,308,136,308C140.416000,308,144,311.584000,144,316C144,320.416000,140.416000,324,136,324Z" transform="translate(-136,-316)" fill="rgb(179,179,179)" stroke="none" stroke-width="1"/></g></g></g><g id="car-svgrepo-com-1-group-7_tr" transform="translate(376,316) rotate(0)"><g id="car-svgrepo-com-1-group-7" transform="translate(-376,-316)"><path id="car-svgrepo-com-1-vector_21" d="M376,356C353.944000,356,336,338.056000,336,316C336,293.944000,353.944000,276,376,276C398.056000,276,416,293.944000,416,316C416,338.056000,398.056000,356,376,356Z" fill="rgb(13,13,13)" stroke="none" stroke-width="1"/><path id="car-svgrepo-com-1-vector_22" d="M376,352C356.152000,352,340,335.848000,340,316C340,296.152000,356.152000,280,376,280C395.848000,280,412,296.148000,412,316C412,335.848000,395.848000,352,376,352Z" fill="rgb(36,36,36)" stroke="none" stroke-width="1"/><path id="car-svgrepo-com-1-vector_23" d="M376,344C360.564000,344,348,331.436000,348,316C348,300.564000,360.564000,288,376,288C391.436000,288,404,300.564000,404,316C404,331.436000,391.436000,344,376,344Z" fill="rgb(179,179,179)" stroke="none" stroke-width="1"/><path id="car-svgrepo-com-1-vector_24" d="M376,340C362.764000,340,352,329.236000,352,316C352,302.764000,362.764000,292,376,292C389.236000,292,400,302.764000,400,316C400,329.236000,389.236000,340,376,340Z" fill="rgb(204,204,204)" stroke="none" stroke-width="1"/><path id="car-svgrepo-com-1-vector_25" d="M376,324C371.584000,324,368,320.416000,368,316C368,311.584000,371.584000,308,376,308C380.416000,308,384,311.584000,384,316C384,320.416000,380.416000,324,376,324Z" fill="rgb(179,179,179)" stroke="none" stroke-width="1"/></g></g><g id="car-svgrepo-com-1-group_3"><path id="car-svgrepo-com-1-vector_26" d="M232,228L331.444000,228L295.672000,177.280000C293.280000,173.872000,289.512000,172,285.048000,172L232,172L232,228Z" fill="rgb(150,230,217)" stroke="none" stroke-width="1"/><path id="car-svgrepo-com-1-vector_27" d="M224,172L174.264000,172C169.808000,172,166.032000,173.872000,163.628000,177.316000L127.860000,228L224,228L224,172Z" fill="rgb(150,230,217)" stroke="none" stroke-width="1"/></g></g><path id="car-svgrepo-com-1-vector_15" d="M76,248L76,272C76,278.600000,70.600000,284,64,284L56,284L56,248L76,248Z" fill="rgb(204,88,76)" stroke="none" stroke-width="1"/><path id="car-svgrepo-com-1-vector_28" d="M434.780000,236L428,236C419.200000,236,415.496000,242.292000,419.764000,249.988000L424.224000,258.016000C428.504000,265.708000,439.200000,272,448,272C450.024000,272,451.944000,271.584000,453.736000,270.892000C450.288000,253.140000,443.244000,242.320000,434.780000,236Z" fill="rgb(245,245,245)" stroke="none" stroke-width="1"/><path id="car-svgrepo-com-1-vector_29" d="M56,236L64,236C70.600000,236,76,241.400000,76,248L56,248L56,236Z" fill="rgb(255,212,100)" stroke="none" stroke-width="1"/></g></g></g></g></svg>